<svg width="800" height="424" viewBox="0 0 800 424" fill="none" xmlns="http://www.w3.org/2000/svg">
  <!-- Court floor color -->
  <rect width="800" height="424" fill="#C8B88A" />

  <!-- Court outline -->
  <rect x="10" y="10" width="780" height="404" stroke="#333333" stroke-width="2" fill="none" />

  <!-- Center circle -->
  <circle cx="400" cy="212" r="60" stroke="#333333" stroke-width="2" fill="none" />
  <circle cx="400" cy="212" r="2" fill="#333333" />

  <!-- Center line -->
  <line x1="400" y1="10" x2="400" y2="414" stroke="#333333" stroke-width="2" />

  <!-- Key (paint) areas -->
  <!-- Left side -->
  <rect x="50" y="142" width="190" height="140" stroke="#333333" stroke-width="2" fill="none" />
  <circle cx="140" cy="212" r="60" stroke="#333333" stroke-width="2" fill="none" />
  
  <!-- Right side -->
  <rect x="560" y="142" width="190" height="140" stroke="#333333" stroke-width="2" fill="none" />
  <circle cx="660" cy="212" r="60" stroke="#333333" stroke-width="2" fill="none" />

  <!-- Free throw lines -->
  <line x1="240" y1="142" x2="240" y2="282" stroke="#333333" stroke-width="2" />
  <line x1="560" y1="142" x2="560" y2="282" stroke="#333333" stroke-width="2" />

  <!-- Three point arcs -->
  <path d="M 10,110 A 237,237 0 0 1 10,314" stroke="#333333" stroke-width="2" fill="none" />
  <path d="M 790,110 A 237,237 0 0 0 790,314" stroke="#333333" stroke-width="2" fill="none" />
  
  <!-- Baseline hash marks (left) -->
  <line x1="50" y1="162" x2="45" y2="162" stroke="#333333" stroke-width="2" />
  <line x1="50" y1="182" x2="45" y2="182" stroke="#333333" stroke-width="2" />
  <line x1="50" y1="202" x2="45" y2="202" stroke="#333333" stroke-width="2" />
  <line x1="50" y1="222" x2="45" y2="222" stroke="#333333" stroke-width="2" />
  <line x1="50" y1="242" x2="45" y2="242" stroke="#333333" stroke-width="2" />
  <line x1="50" y1="262" x2="45" y2="262" stroke="#333333" stroke-width="2" />
  
  <!-- Baseline hash marks (right) -->
  <line x1="750" y1="162" x2="755" y2="162" stroke="#333333" stroke-width="2" />
  <line x1="750" y1="182" x2="755" y2="182" stroke="#333333" stroke-width="2" />
  <line x1="750" y1="202" x2="755" y2="202" stroke="#333333" stroke-width="2" />
  <line x1="750" y1="222" x2="755" y2="222" stroke="#333333" stroke-width="2" />
  <line x1="750" y1="242" x2="755" y2="242" stroke="#333333" stroke-width="2" />
  <line x1="750" y1="262" x2="755" y2="262" stroke="#333333" stroke-width="2" />

  <!-- Backboards -->
  <line x1="35" y1="212" x2="45" y2="212" stroke="#333333" stroke-width="4" />
  <line x1="765" y1="212" x2="755" y2="212" stroke="#333333" stroke-width="4" />

  <!-- Rims -->
  <circle cx="75" cy="212" r="9" stroke="#FF0000" stroke-width="2" fill="none" />
  <circle cx="725" cy="212" r="9" stroke="#FF0000" stroke-width="2" fill="none" />

  <!-- Free throw lane marks (left) -->
  <line x1="50" y1="142" x2="55" y2="142" stroke="#333333" stroke-width="2" />
  <line x1="70" y1="142" x2="75" y2="142" stroke="#333333" stroke-width="2" />
  <line x1="90" y1="142" x2="95" y2="142" stroke="#333333" stroke-width="2" />
  <line x1="110" y1="142" x2="115" y2="142" stroke="#333333" stroke-width="2" />
  <line x1="130" y1="142" x2="135" y2="142" stroke="#333333" stroke-width="2" />
  <line x1="150" y1="142" x2="155" y2="142" stroke="#333333" stroke-width="2" />
  <line x1="170" y1="142" x2="175" y2="142" stroke="#333333" stroke-width="2" />
  <line x1="190" y1="142" x2="195" y2="142" stroke="#333333" stroke-width="2" />
  <line x1="210" y1="142" x2="215" y2="142" stroke="#333333" stroke-width="2" />
  <line x1="230" y1="142" x2="235" y2="142" stroke="#333333" stroke-width="2" />
  
  <!-- Free throw lane marks (left bottom) -->
  <line x1="50" y1="282" x2="55" y2="282" stroke="#333333" stroke-width="2" />
  <line x1="70" y1="282" x2="75" y2="282" stroke="#333333" stroke-width="2" />
  <line x1="90" y1="282" x2="95" y2="282" stroke="#333333" stroke-width="2" />
  <line x1="110" y1="282" x2="115" y2="282" stroke="#333333" stroke-width="2" />
  <line x1="130" y1="282" x2="135" y2="282" stroke="#333333" stroke-width="2" />
  <line x1="150" y1="282" x2="155" y2="282" stroke="#333333" stroke-width="2" />
  <line x1="170" y1="282" x2="175" y2="282" stroke="#333333" stroke-width="2" />
  <line x1="190" y1="282" x2="195" y2="282" stroke="#333333" stroke-width="2" />
  <line x1="210" y1="282" x2="215" y2="282" stroke="#333333" stroke-width="2" />
  <line x1="230" y1="282" x2="235" y2="282" stroke="#333333" stroke-width="2" />
  
  <!-- Free throw lane marks (right) -->
  <line x1="750" y1="142" x2="745" y2="142" stroke="#333333" stroke-width="2" />
  <line x1="730" y1="142" x2="725" y2="142" stroke="#333333" stroke-width="2" />
  <line x1="710" y1="142" x2="705" y2="142" stroke="#333333" stroke-width="2" />
  <line x1="690" y1="142" x2="685" y2="142" stroke="#333333" stroke-width="2" />
  <line x1="670" y1="142" x2="665" y2="142" stroke="#333333" stroke-width="2" />
  <line x1="650" y1="142" x2="645" y2="142" stroke="#333333" stroke-width="2" />
  <line x1="630" y1="142" x2="625" y2="142" stroke="#333333" stroke-width="2" />
  <line x1="610" y1="142" x2="605" y2="142" stroke="#333333" stroke-width="2" />
  <line x1="590" y1="142" x2="585" y2="142" stroke="#333333" stroke-width="2" />
  <line x1="570" y1="142" x2="565" y2="142" stroke="#333333" stroke-width="2" />
  
  <!-- Free throw lane marks (right bottom) -->
  <line x1="750" y1="282" x2="745" y2="282" stroke="#333333" stroke-width="2" />
  <line x1="730" y1="282" x2="725" y2="282" stroke="#333333" stroke-width="2" />
  <line x1="710" y1="282" x2="705" y2="282" stroke="#333333" stroke-width="2" />
  <line x1="690" y1="282" x2="685" y2="282" stroke="#333333" stroke-width="2" />
  <line x1="670" y1="282" x2="665" y2="282" stroke="#333333" stroke-width="2" />
  <line x1="650" y1="282" x2="645" y2="282" stroke="#333333" stroke-width="2" />
  <line x1="630" y1="282" x2="625" y2="282" stroke="#333333" stroke-width="2" />
  <line x1="610" y1="282" x2="605" y2="282" stroke="#333333" stroke-width="2" />
  <line x1="590" y1="282" x2="585" y2="282" stroke="#333333" stroke-width="2" />
  <line x1="570" y1="282" x2="565" y2="282" stroke="#333333" stroke-width="2" />
</svg>
